<svg version="1.1" xmlns="http://www.w3.org/2000/svg" viewBox="0 0 1275.6461709195514 912.4006096634046" width="1275.6461709195514" height="912.4006096634046">
  <!-- svg-source:excalidraw -->
  
  <defs>
    <style class="style-fonts">
      @font-face {
        font-family: "Virgil";
        src: url("https://excalidraw.com/Virgil.woff2");
      }
      @font-face {
        font-family: "Cascadia";
        src: url("https://excalidraw.com/Cascadia.woff2");
      }
    </style>
  </defs>
  <rect x="0" y="0" width="1275.6461709195514" height="912.4006096634046" fill="#ffffff"></rect><g stroke-linecap="round" transform="translate(10 86.3294548042523) rotate(0 61.77638220844136 65.41028704423208)"><path d="M1.17 3.71 C33.53 -0.8, 65.74 -5.35, 126.23 2.3 M1.49 0.08 C46.68 0.38, 95.57 1.74, 124.66 -1.82 M125.32 -1.48 C118.89 29.78, 118.59 57.86, 120.76 127.4 M123.78 -1.68 C122.87 48.96, 123.81 100.27, 123.41 131.36 M123.33 128.53 C85.51 131.21, 42 128.52, -3.52 132.6 M123.8 129.01 C87.52 132.68, 54.74 131.29, 0.59 130.29 M-0.78 131.79 C6.1 81.63, 2.84 40.74, -0.88 -2.39 M-1.21 130.24 C2.75 92.65, 4.46 55.78, 0.68 -1.73" stroke="#000000" stroke-width="4" fill="none"></path></g><g stroke-linecap="round" transform="translate(133.55276441685783 86.3294548042523) rotate(0 61.77638220844136 65.41028704423208)"><path d="M0.24 1.04 C45.41 -5.8, 95.2 0.01, 126.8 2.66 M-0.43 0.22 C37.62 1.48, 73.64 -1.92, 121.77 -1.9 M121.37 2.21 C122.23 53.59, 121.91 98.35, 126.66 128.9 M124.12 -0.46 C125.36 47.72, 123.71 93.09, 123.95 129.4 M125.04 130.56 C80.75 126.46, 39.42 131.18, -0.81 132.31 M122.08 131.83 C82.59 128.21, 41.57 128.05, 1.15 129.13 M3.88 128.42 C1.13 99.54, -0.37 58.88, -0.51 -3.9 M0.2 130.24 C3.49 81.88, 2.26 30.96, -1.01 -2" stroke="#000000" stroke-width="4" fill="none"></path></g><g stroke-linecap="round" transform="translate(257.27208280538446 86.3294548042523) rotate(0 61.77638220844136 65.41028704423208)"><path d="M-0.85 -3.51 C51.2 1.66, 100.3 2.02, 123.29 2.99 M1.35 1.58 C38.66 -2.09, 73.31 -2.17, 125.33 0.88 M121.07 2.71 C119.33 30.99, 125.24 66.91, 125.7 131.28 M125.06 1.44 C124.15 28.82, 124.69 55.14, 124.08 130.71 M121.06 127.88 C90.03 132.44, 62.74 132.15, 1.37 131.32 M123.87 130.45 C98.26 131.54, 72.94 130.37, -0.68 130.43 M0.62 134.32 C-3.42 86, -3.05 42.06, 3 -2.41 M1.91 130.95 C0.42 93.66, -1.27 57.96, 1.67 0.33" stroke="#000000" stroke-width="4" fill="none"></path></g><g stroke-linecap="round" transform="translate(380.82484722229935 86.3294548042523) rotate(0 61.77638220844136 65.41028704423208)"><path d="M2.67 2.3 C43.52 4.83, 80.28 5.15, 123.71 -0.86 M1.11 -1.82 C36.61 -3.85, 78.57 -1.07, 122.81 -1.09 M120.76 -3.42 C125.04 44.55, 124.08 93.38, 120.2 131.96 M123.41 0.54 C125.93 34.84, 126.05 72.42, 122.41 131.56 M120.03 132.6 C86.47 130.49, 52.38 129.5, -3.62 127.88 M124.14 130.29 C81.39 128.66, 36.24 129.97, 0.49 132.76 M-0.88 128.43 C-0.91 95.53, 2.6 65.62, -1.17 0.4 M0.68 129.09 C-3.51 93.4, -0.83 60.31, 0.54 0.47" stroke="#000000" stroke-width="4" fill="none"></path></g><g stroke-linecap="round" transform="translate(505.588913251088 86.3294548042523) rotate(0 61.77638220844136 65.41028704423208)"><path d="M3.25 2.66 C25.96 1.57, 52.6 -2.28, 123.98 2.7 M-1.78 -1.9 C48.61 3.13, 92.93 1.16, 124.66 -1.24 M126.66 -1.92 C123.87 48.55, 118.37 97.33, 122.64 133.84 M123.95 -1.42 C123.89 48.54, 122.22 98.04, 123.42 129.57 M122.74 132.31 C96.95 132.41, 64 128.97, 2.02 131.46 M124.71 129.13 C88.12 129.77, 54.53 132.1, -1.2 131.13 M-0.51 126.92 C3.58 77.73, -0.59 29.86, -1.17 3.82 M-1.01 128.82 C0.78 91.07, -0.34 51.12, -0.97 1.2" stroke="#000000" stroke-width="4" fill="none"></path></g><g stroke-linecap="round" transform="translate(629.141677667984 86.3294548042523) rotate(0 61.77638220844136 65.41028704423208)"><path d="M-0.26 2.99 C44.32 -2.5, 88.76 1.06, 126.71 2.22 M1.78 0.88 C25.08 1.26, 52.75 1.11, 124.91 -1.4 M125.7 0.46 C122.23 29.18, 124.68 59.11, 126.43 130.54 M124.08 -0.11 C122.93 43.49, 123.95 84.26, 122.08 129.06 M124.92 131.32 C77.39 128.8, 40.48 132.38, -0.75 132 M122.87 130.43 C90.26 130.67, 54.79 129.03, 1.75 130.38 M3 128.41 C-0.83 99.78, -0.84 71.77, 0.26 1.36 M1.67 131.15 C1.87 103.38, 0.36 76.19, 0.79 -1.72" stroke="#000000" stroke-width="4" fill="none"></path></g><g stroke-linecap="round" transform="translate(752.6944420848744 86.3294548042523) rotate(0 61.77638220844142 65.41028704423208)"><path d="M0.16 -0.86 C45.71 0.86, 93.73 0.37, 119.91 -3.57 M-0.74 -1.09 C26.43 -2.33, 52.01 -2.49, 121.84 1.55 M120.2 1.14 C124.05 36, 127.83 65.67, 124.62 131.62 M122.41 0.74 C124.11 28.7, 122.77 58.14, 124.44 130.42 M119.93 127.88 C83.91 131.77, 39.47 132.3, -1.06 133.13 M124.04 132.76 C95.76 130.65, 72.11 129.9, -1.19 130.57 M-1.17 131.22 C-3.13 108.14, -1.71 79.17, -3.46 -2.03 M0.54 131.29 C-3.15 105.84, -1.39 76.74, -1.68 1.77" stroke="#000000" stroke-width="4" fill="none"></path></g><g stroke-linecap="round" transform="translate(876.2472065017431 86.3294548042523) rotate(0 61.77638220844142 65.41028704423208)"><path d="M0.43 2.7 C49.45 2.75, 88.93 -3.04, 119.75 3.56 M1.1 -1.24 C43.88 -0.05, 83.35 2.9, 122.59 1.08 M122.64 3.02 C124.23 40.46, 122.43 82.28, 120.71 131.87 M123.42 -1.25 C120.58 36.75, 122.94 76.63, 124.3 131.5 M125.58 131.46 C84.2 130.18, 45.28 131.31, -3.39 129.45 M122.35 131.13 C90.64 132.78, 53.04 132.96, -1.95 132.32 M-1.17 134.64 C1.02 100.82, -2.7 66.07, -4 3.34 M-0.97 132.02 C0.08 87.67, -2.39 49.74, 1.62 1.48" stroke="#000000" stroke-width="4" fill="none"></path></g><g stroke-linecap="round" transform="translate(997.37736769478 86.3294548042523) rotate(0 61.77638220844142 65.41028704423208)"><path d="M3.16 2.22 C30.77 -5.24, 65.02 1.89, 125.32 -1.48 M1.35 -1.4 C28.62 3.09, 59.71 2.61, 123.78 -1.68 M126.43 -0.29 C124.03 43.76, 120.11 86.97, 123.33 128.53 M122.08 -1.76 C124.27 43.7, 124.13 88.9, 123.8 129.01 M122.8 132 C94.51 133.52, 64.21 129.85, -0.78 131.79 M125.3 130.38 C73.3 130.95, 23.5 132.7, -1.21 130.24 M0.26 132.18 C-2.7 88.25, -3.23 53.07, 0.67 1.09 M0.79 129.1 C-0.41 90.28, 2.89 47.66, -1.22 0.26" stroke="#000000" stroke-width="4" fill="none"></path></g><g stroke-linecap="round" transform="translate(1120.930132111654 86.3294548042523) rotate(0 61.77638220844142 65.41028704423208)"><path d="M-3.64 -3.57 C41.62 2.19, 92.6 -2.85, 121.37 2.21 M-1.71 1.55 C28.45 2.8, 59.05 0.05, 124.12 -0.46 M124.62 0.8 C122.59 50.16, 125.21 95.94, 125.04 130.56 M124.44 -0.4 C122.37 31.78, 121.87 60.38, 122.08 131.83 M122.49 133.13 C81.12 130.18, 44.69 132.52, 3.88 128.42 M122.36 130.57 C82.63 131.78, 44.4 129.69, 0.2 130.24 M-3.46 128.79 C-4.16 82.42, 0.5 28.43, 0.94 -1.94 M-1.68 132.59 C0.59 85.19, -2.26 36.87, 0.62 -0.55" stroke="#000000" stroke-width="4" fill="none"></path></g><g transform="translate(51.231769603415955 10.330602961455781) rotate(0 18.844314575195312 34.99801095147174)"><text x="0" y="0" font-family="Virgil, Segoe UI Emoji" font-size="54.7856336133988px" fill="#000000" text-anchor="start" style="white-space: pre;" direction="ltr" dominant-baseline="text-before-edge">0</text></g><g transform="translate(187.39467555027352 10) rotate(0 7.4226837158203125 34.99801095147174)"><text x="0" y="0" font-family="Virgil, Segoe UI Emoji" font-size="54.78563361339874px" fill="#000000" text-anchor="start" style="white-space: pre;" direction="ltr" dominant-baseline="text-before-edge">1</text></g><g transform="translate(299.2122873262456 10) rotate(0 19.501678466796875 34.99801095147171)"><text x="0" y="0" font-family="Virgil, Segoe UI Emoji" font-size="54.78563361339878px" fill="#000000" text-anchor="start" style="white-space: pre;" direction="ltr" dominant-baseline="text-before-edge">2</text></g><g transform="translate(423.3317996770618 10) rotate(0 18.652587890625 34.99801095147174)"><text x="0" y="0" font-family="Virgil, Segoe UI Emoji" font-size="54.78563361339876px" fill="#000000" text-anchor="start" style="white-space: pre;" direction="ltr" dominant-baseline="text-before-edge">3</text></g><g transform="translate(549.2293615737536 10) rotate(0 17.52959442138672 34.99801095147174)"><text x="0" y="0" font-family="Virgil, Segoe UI Emoji" font-size="54.78563361339878px" fill="#000000" text-anchor="start" style="white-space: pre;" direction="ltr" dominant-baseline="text-before-edge">4</text></g><g transform="translate(673.3488739245398 10) rotate(0 16.927017211914062 34.99801095147174)"><text x="0" y="0" font-family="Virgil, Segoe UI Emoji" font-size="54.785633613398744px" fill="#000000" text-anchor="start" style="white-space: pre;" direction="ltr" dominant-baseline="text-before-edge">5</text></g><g transform="translate(796.3348904075018 10) rotate(0 17.52959442138672 34.99801095147174)"><text x="0" y="0" font-family="Virgil, Segoe UI Emoji" font-size="54.78563361339878px" fill="#000000" text-anchor="start" style="white-space: pre;" direction="ltr" dominant-baseline="text-before-edge">6</text></g><g transform="translate(922.72139449404 10) rotate(0 14.735816955566406 34.99801095147174)"><text x="0" y="0" font-family="Virgil, Segoe UI Emoji" font-size="54.78563361339879px" fill="#000000" text-anchor="start" style="white-space: pre;" direction="ltr" dominant-baseline="text-before-edge">7</text></g><g transform="translate(1037.6173284138122 10) rotate(0 20.953346252441406 34.99801095147174)"><text x="0" y="0" font-family="Virgil, Segoe UI Emoji" font-size="54.78563361339868px" fill="#000000" text-anchor="start" style="white-space: pre;" direction="ltr" dominant-baseline="text-before-edge">8</text></g><g transform="translate(1165.7040763021273 10) rotate(0 16.680503845214844 34.99801095147174)"><text x="0" y="0" font-family="Virgil, Segoe UI Emoji" font-size="54.78563361339878px" fill="#000000" text-anchor="start" style="white-space: pre;" direction="ltr" dominant-baseline="text-before-edge">9</text></g><g transform="translate(49.149370465023935 119.30425239523191) rotate(0 19.501678466796875 34.99801095147173)"><text x="0" y="0" font-family="Virgil, Segoe UI Emoji" font-size="54.78563361339878px" fill="#000000" text-anchor="start" style="white-space: pre;" direction="ltr" dominant-baseline="text-before-edge">2</text></g><g transform="translate(179.0852451238926 114.33747683116042) rotate(0 16.927017211914062 34.99801095147174)"><text x="0" y="0" font-family="Virgil, Segoe UI Emoji" font-size="54.785633613398744px" fill="#000000" text-anchor="start" style="white-space: pre;" direction="ltr" dominant-baseline="text-before-edge">5</text></g><g transform="translate(293.6033653625533 113.34409140370815) rotate(0 16.680503845214844 34.99801095147174)"><text x="0" y="0" font-family="Virgil, Segoe UI Emoji" font-size="54.78563361339878px" fill="#000000" text-anchor="start" style="white-space: pre;" direction="ltr" dominant-baseline="text-before-edge">9</text></g><g transform="translate(546.2453569649775 108.70847799838532) rotate(0 16.680503845214844 34.99801095147174)"><text x="0" y="0" font-family="Virgil, Segoe UI Emoji" font-size="54.78563361339878px" fill="#000000" text-anchor="start" style="white-space: pre;" direction="ltr" dominant-baseline="text-before-edge">9</text></g><g transform="translate(422.83531936439715 114.00636519680859) rotate(0 17.52959442138672 34.99801095147174)"><text x="0" y="0" font-family="Virgil, Segoe UI Emoji" font-size="54.78563361339878px" fill="#000000" text-anchor="start" style="white-space: pre;" direction="ltr" dominant-baseline="text-before-edge">6</text></g><g transform="translate(794.5894482712775 117.31753206472399) rotate(0 20.953346252441406 34.99801095147174)"><text x="0" y="0" font-family="Virgil, Segoe UI Emoji" font-size="54.78563361339868px" fill="#000000" text-anchor="start" style="white-space: pre;" direction="ltr" dominant-baseline="text-before-edge">8</text></g><g transform="translate(669.4971660461003 112.41907979306427) rotate(0 18.652587890625 34.99801095147174)"><text x="0" y="0" font-family="Virgil, Segoe UI Emoji" font-size="54.78563361339876px" fill="#000000" text-anchor="start" style="white-space: pre;" direction="ltr" dominant-baseline="text-before-edge">3</text></g><g transform="translate(918.4204927089046 115.66194863076635) rotate(0 16.680503845214844 34.99801095147174)"><text x="0" y="0" font-family="Virgil, Segoe UI Emoji" font-size="54.78563361339878px" fill="#000000" text-anchor="start" style="white-space: pre;" direction="ltr" dominant-baseline="text-before-edge">9</text></g><g transform="translate(1042.1135957026527 115.6619486307664) rotate(0 14.735816955566406 34.99801095147174)"><text x="0" y="0" font-family="Virgil, Segoe UI Emoji" font-size="54.78563361339879px" fill="#000000" text-anchor="start" style="white-space: pre;" direction="ltr" dominant-baseline="text-before-edge">7</text></g><g transform="translate(1172.3258079688508 117.31753206472399) rotate(0 7.4226837158203125 34.99801095147174)"><text x="0" y="0" font-family="Virgil, Segoe UI Emoji" font-size="54.78563361339874px" fill="#000000" text-anchor="start" style="white-space: pre;" direction="ltr" dominant-baseline="text-before-edge">1</text></g><g stroke-linecap="round" transform="translate(591.181001450659 248.86458521223855) rotate(359.8657848032177 66.49215750594419 64.23818606506477)"><path d="M84.05 2.07 C93.73 3.79, 104.78 12.04, 112.73 18.93 C120.68 25.82, 128.49 33.74, 131.75 43.42 C135.01 53.11, 134.47 67.24, 132.3 77.04 C130.13 86.85, 125.11 94.98, 118.73 102.24 C112.35 109.51, 103.06 116.49, 94.03 120.65 C84.99 124.81, 74.87 127.34, 64.53 127.18 C54.18 127.02, 41.19 124.24, 31.98 119.68 C22.77 115.12, 14.57 108.23, 9.29 99.83 C4.01 91.44, 1.18 79.74, 0.29 69.32 C-0.61 58.91, 0.11 46.29, 3.9 37.34 C7.7 28.4, 14.66 21.61, 23.06 15.67 C31.46 9.73, 40.58 2.49, 54.3 1.69 C68.03 0.89, 94.41 6.5, 105.4 10.85 C116.4 15.21, 121.28 27.09, 120.28 27.85 M116.2 24.05 C122.89 30.27, 129.89 40.88, 132.58 50.62 C135.26 60.35, 135.59 72.55, 132.33 82.46 C129.06 92.37, 120.31 103.36, 112.99 110.08 C105.66 116.81, 97.42 119.45, 88.36 122.81 C79.29 126.17, 68.7 131.18, 58.6 130.24 C48.5 129.3, 36.01 123.24, 27.75 117.16 C19.49 111.08, 13.62 103.11, 9.03 93.76 C4.44 84.4, 0.46 71.72, 0.19 61.02 C-0.07 50.33, 2.8 38.39, 7.44 29.59 C12.08 20.78, 18.66 13.42, 28.03 8.18 C37.4 2.94, 52.91 -1.55, 63.67 -1.84 C74.43 -2.14, 83.18 2.29, 92.59 6.41 C102 10.52, 115.79 19.62, 120.12 22.87 C124.45 26.13, 119.37 24.77, 118.57 25.94" stroke="#000000" stroke-width="4" fill="none"></path></g><g stroke-linecap="round" transform="translate(396.0946412846662 502.4363351452365) rotate(359.8657848032177 66.49215750594419 64.23818606506477)"><path d="M102.34 10.87 C111.69 15.14, 121.28 22.73, 126.43 31.62 C131.58 40.51, 133.38 54.26, 133.27 64.21 C133.16 74.15, 130.39 82.99, 125.76 91.31 C121.14 99.63, 113.5 108.25, 105.51 114.13 C97.52 120, 88.08 124.73, 77.83 126.56 C67.59 128.39, 54.14 127.86, 44.06 125.11 C33.99 122.36, 24.3 117.24, 17.38 110.06 C10.46 102.88, 5.46 92.09, 2.53 82.01 C-0.41 71.93, -2.05 59.14, -0.22 49.59 C1.62 40.03, 6.56 32.03, 13.52 24.66 C20.48 17.29, 31.6 9.6, 41.53 5.37 C51.47 1.15, 60.2 -3.87, 73.14 -0.69 C86.09 2.49, 110.51 17.72, 119.22 24.43 C127.94 31.13, 126.19 38.75, 125.43 39.56 M112.25 15.98 C120.78 21.64, 127.88 32.95, 130.99 42.66 C134.11 52.38, 132.53 64.83, 130.95 74.25 C129.37 83.66, 126.77 90.83, 121.5 99.15 C116.23 107.46, 108.45 119.01, 99.33 124.16 C90.2 129.32, 77.07 130.32, 66.74 130.07 C56.41 129.82, 46.58 127.81, 37.34 122.69 C28.11 117.57, 17.75 108.38, 11.34 99.35 C4.93 90.33, 0.48 78.62, -1.12 68.53 C-2.73 58.44, -2.74 47.99, 1.71 38.82 C6.17 29.64, 17.32 19.46, 25.62 13.47 C33.93 7.48, 41.57 4.91, 51.54 2.89 C61.51 0.86, 75.24 -1.24, 85.46 1.33 C95.69 3.89, 108.33 15.18, 112.9 18.28 C117.47 21.37, 113.41 19.35, 112.89 19.9" stroke="#000000" stroke-width="4" fill="none"></path></g><g stroke-linecap="round" transform="translate(95.83986793068999 495.7863596164127) rotate(359.8657848032177 66.49215750594416 64.23818606506475)"><path d="M46.16 2.51 C55.17 -1.34, 66.4 0.99, 76.2 2.39 C86 3.8, 96.7 5.75, 104.96 10.95 C113.22 16.16, 120.83 24.73, 125.75 33.64 C130.67 42.54, 134.74 54.07, 134.47 64.38 C134.2 74.69, 129.45 86.24, 124.12 95.48 C118.8 104.71, 111 114.21, 102.52 119.77 C94.05 125.33, 83.69 128.33, 73.25 128.83 C62.81 129.34, 49.79 126.36, 39.88 122.8 C29.98 119.24, 20.13 114.81, 13.81 107.49 C7.49 100.16, 3.79 88.99, 1.95 78.84 C0.1 68.69, -0.07 56.16, 2.75 46.59 C5.57 37.02, 11.08 29.19, 18.86 21.43 C26.64 13.67, 42.55 3.06, 49.44 0.05 C56.34 -2.96, 59.44 2.27, 60.23 3.38 M77.22 0.86 C86.66 1.51, 95.22 7.79, 103.45 13.09 C111.67 18.38, 121.17 23.56, 126.57 32.64 C131.96 41.72, 135.85 56.94, 135.81 67.55 C135.76 78.17, 131.19 87.66, 126.27 96.32 C121.35 104.98, 115.02 114.34, 106.29 119.54 C97.56 124.73, 84.84 127.18, 73.91 127.52 C62.98 127.85, 50.84 125.38, 40.73 121.56 C30.62 117.73, 19.35 112.01, 13.27 104.56 C7.18 97.11, 6.09 86.06, 4.23 76.87 C2.37 67.68, -0.42 58.84, 2.1 49.42 C4.61 39.99, 12.12 27.67, 19.3 20.33 C26.48 12.99, 35.44 8.34, 45.18 5.4 C54.91 2.46, 72.23 3.3, 77.69 2.71 C83.16 2.12, 78.16 1.06, 77.97 1.85" stroke="#000000" stroke-width="4" fill="none"></path></g><g stroke-linecap="round" transform="translate(580.8474529513359 773.9242249481124) rotate(359.8657848032177 66.49215750594419 64.23818606506478)"><path d="M82.82 3.64 C92.16 5, 102.62 9.04, 110.23 15.03 C117.83 21.03, 124.49 30.3, 128.45 39.61 C132.41 48.92, 135.3 60.65, 133.99 70.88 C132.67 81.12, 126.78 92.32, 120.57 101.02 C114.35 109.72, 105.72 118.39, 96.71 123.08 C87.7 127.77, 77 129.66, 66.51 129.15 C56.02 128.65, 43.23 124.53, 33.76 120.05 C24.29 115.58, 15.2 110.25, 9.71 102.31 C4.22 94.37, 1.62 82.74, 0.8 72.42 C-0.01 62.1, 1.02 49.65, 4.83 40.39 C8.64 31.13, 16.33 23.58, 23.69 16.87 C31.04 10.17, 36.18 1.37, 48.97 0.16 C61.75 -1.04, 89.72 6.72, 100.42 9.63 C111.12 12.55, 113.94 16.88, 113.16 17.65 M47.03 3.71 C56 -0.21, 70.34 -3.26, 81.13 -0.98 C91.91 1.29, 103.75 10.37, 111.74 17.38 C119.74 24.39, 125.16 32, 129.1 41.09 C133.04 50.18, 136.45 62.35, 135.36 71.9 C134.27 81.45, 128.82 90.77, 122.57 98.39 C116.31 106.01, 107.3 112.9, 97.83 117.61 C88.35 122.33, 75.35 126.3, 65.72 126.7 C56.08 127.11, 48.8 123.86, 40.02 120.03 C31.24 116.19, 19.22 111.49, 13.03 103.7 C6.84 95.91, 4.19 83.1, 2.87 73.3 C1.56 63.51, 1.75 53.86, 5.15 44.93 C8.54 36, 15.53 26.82, 23.23 19.74 C30.93 12.65, 46.73 5.02, 51.36 2.43 C55.99 -0.16, 50.92 3.17, 51.01 4.19" stroke="#000000" stroke-width="4" fill="none"></path></g><g stroke-linecap="round"><g transform="translate(392.07412839670906 559.9781183085785) rotate(0 -79.83557250257604 0.15963395475392872)"><path d="M0.68 2.72 C-25.88 2.41, -134.2 -1.37, -160.35 -2.4 M-2.39 1.72 C-27.96 1.99, -129.14 1.87, -154.86 1.47" stroke="#000000" stroke-width="4" fill="none"></path></g></g><mask></mask><g stroke-linecap="round"><g transform="translate(507.2962820391971 618.0509674538914) rotate(0 56.68999440841844 79.31049684514802)"><path d="M-1.68 0.43 C17.38 26.17, 96.29 130.97, 115.06 157.13 M2.6 -1.8 C21.45 25.55, 95.11 133.4, 114.15 160.42" stroke="#000000" stroke-width="4" fill="none"></path></g></g><mask></mask><g stroke-linecap="round" transform="translate(864.9641848128527 249.46315612186538) rotate(359.8657848032177 66.49215750594419 64.23818606506477)"><path d="M30.61 9.91 C38.1 4.17, 48.48 1.22, 58.37 0.61 C68.25 0, 80.21 2.57, 89.93 6.25 C99.65 9.92, 110.12 15.66, 116.7 22.66 C123.29 29.67, 127.39 38.45, 129.43 48.3 C131.47 58.14, 131.13 71.82, 128.94 81.73 C126.75 91.63, 122.75 100.76, 116.28 107.72 C109.81 114.68, 99.61 119.99, 90.1 123.5 C80.58 127, 69.79 130.13, 59.21 128.74 C48.63 127.35, 34.95 120.74, 26.61 115.16 C18.27 109.59, 13.36 104.07, 9.17 95.3 C4.98 86.53, 1.66 72.67, 1.48 62.55 C1.3 52.44, -0.39 44.58, 8.1 34.6 C16.59 24.61, 40.63 8.19, 52.42 2.66 C64.21 -2.86, 78.37 0.52, 78.83 1.44 M20.4 20.73 C26.54 13.24, 39.28 8.46, 48.9 5.07 C58.53 1.68, 68.7 -0.57, 78.16 0.4 C87.61 1.37, 98 5.02, 105.64 10.91 C113.27 16.8, 119.01 26.61, 123.97 35.73 C128.92 44.85, 135.42 55.19, 135.36 65.62 C135.3 76.06, 128.95 89.57, 123.62 98.33 C118.29 107.09, 111.89 112.95, 103.37 118.2 C94.86 123.45, 82.76 128.65, 72.54 129.8 C62.33 130.96, 51.28 129.41, 42.08 125.15 C32.88 120.89, 23.79 112.29, 17.34 104.23 C10.89 96.17, 5.51 86.59, 3.36 76.8 C1.22 67.01, 1.95 55.23, 4.49 45.48 C7.03 35.73, 16.36 22.52, 18.6 18.31 C20.85 14.11, 17.45 19.04, 17.98 20.23" stroke="#000000" stroke-width="4" fill="none"></path></g><g stroke-linecap="round" transform="translate(1128.7140982973274 641.2148124139546) rotate(359.8657848032177 66.49215750594419 64.23818606506477)"><path d="M10.9 28.35 C15.24 20.51, 25.36 14.11, 34.56 9.5 C43.77 4.88, 56.01 1.24, 66.12 0.68 C76.23 0.12, 86.41 1.4, 95.21 6.12 C104.02 10.84, 112.67 20.61, 118.93 29.02 C125.19 37.42, 131.04 47.13, 132.77 56.56 C134.5 65.99, 132.74 76.22, 129.31 85.6 C125.87 94.97, 120.18 106.25, 112.16 112.79 C104.14 119.32, 91.05 122.22, 81.17 124.81 C71.28 127.41, 62.33 130.58, 52.84 128.34 C43.36 126.11, 32.27 118.13, 24.26 111.42 C16.24 104.71, 8.83 96.94, 4.76 88.09 C0.7 79.23, -3.08 70.43, -0.12 58.3 C2.83 46.17, 16.26 23.52, 22.49 15.3 C28.72 7.08, 36.82 7.71, 37.26 8.98 M119.85 24.73 C126.74 30.97, 129.96 40.7, 131.52 49.66 C133.08 58.62, 132.39 69.07, 129.19 78.48 C125.99 87.9, 118.65 98.76, 112.32 106.14 C105.98 113.52, 100.39 118.92, 91.17 122.74 C81.96 126.56, 67.28 130.27, 57.02 129.07 C46.76 127.86, 37.7 121.31, 29.62 115.52 C21.54 109.72, 13.05 102.73, 8.53 94.31 C4 85.89, 2.02 75.17, 2.47 64.98 C2.92 54.79, 6.27 42.14, 11.21 33.17 C16.15 24.19, 23.73 16.62, 32.12 11.13 C40.51 5.64, 51.75 1.45, 61.54 0.24 C71.33 -0.97, 81.95 0.09, 90.88 3.87 C99.81 7.64, 111.23 19.32, 115.1 22.9 C118.98 26.48, 114.56 24.37, 114.14 25.33" stroke="#000000" stroke-width="4" fill="none"></path></g><g stroke-linecap="round" transform="translate(1132.6618680662123 367.0500845968915) rotate(359.8657848032177 66.49215750594419 64.23818606506477)"><path d="M28.21 13.23 C35.83 7.17, 48.66 2.81, 58.69 1.14 C68.73 -0.54, 79.15 -0.52, 88.42 3.19 C97.69 6.9, 107.16 15.65, 114.32 23.37 C121.49 31.09, 128.54 40.26, 131.41 49.49 C134.27 58.71, 133.83 69.02, 131.5 78.72 C129.17 88.42, 124.61 100.37, 117.41 107.69 C110.2 115.01, 97.81 119, 88.27 122.65 C78.73 126.31, 69.85 130.75, 60.17 129.62 C50.48 128.48, 38.85 121.66, 30.13 115.83 C21.41 110, 12.95 103.03, 7.84 94.63 C2.73 86.24, -0.55 75.69, -0.55 65.48 C-0.55 55.26, -0.7 43.84, 7.85 33.36 C16.41 22.88, 40.21 7.58, 50.79 2.6 C61.38 -2.38, 70.94 2.4, 71.36 3.48 M100.44 8.35 C108.67 11.59, 116.64 19.68, 121.54 27.95 C126.44 36.22, 128.46 47.96, 129.85 57.96 C131.24 67.96, 133.51 78.34, 129.87 87.95 C126.24 97.56, 116.13 109.21, 108.02 115.64 C99.91 122.07, 91.09 124.59, 81.24 126.52 C71.39 128.46, 58.74 129.61, 48.94 127.23 C39.13 124.86, 29.55 119.48, 22.41 112.28 C15.28 105.07, 9.33 93.74, 6.12 84 C2.91 74.26, 1.62 63.68, 3.16 53.86 C4.7 44.03, 9.53 33.19, 15.35 25.07 C21.16 16.95, 29.31 9.25, 38.03 5.11 C46.76 0.98, 57.67 -0.66, 67.71 0.28 C77.74 1.21, 92.85 8.8, 98.24 10.72 C103.63 12.65, 100.12 11.37, 100.04 11.84" stroke="#000000" stroke-width="4" fill="none"></path></g><g stroke-linecap="round"><g transform="translate(1202.4432101922002 500.3888142834717) rotate(0 -0.4258855345357233 67.73854595945548)"><path d="M-1.69 -0.82 C-1.46 21.5, -1.81 113.05, -1.36 136.02 M2.59 -3.73 C2.72 18.81, -3.13 115.21, -3.44 139.21" stroke="#000000" stroke-width="4" fill="none"></path></g></g><mask></mask><g stroke-linecap="round"><g transform="translate(997.6470758355298 333.9431973220243) rotate(0 71.96567328354922 29.420914896934462)"><path d="M0.28 -0.82 C25.05 9.13, 122.79 49.34, 146.95 58.85 M-3.02 -3.73 C21.78 6.79, 121.67 52.28, 146.16 62.57" stroke="#000000" stroke-width="4" fill="none"></path></g></g><mask></mask><g stroke-linecap="round"><g transform="translate(611.100613355473 363.39059782628834) rotate(0 -54.93437582934746 70.28374961256752)"><path d="M2.67 0.18 C-15.84 23.72, -91.51 117.13, -110.82 140.45 M0.68 -2.19 C-18.15 21.69, -93.13 118.78, -112.54 142.76" stroke="#000000" stroke-width="4" fill="none"></path></g></g><mask></mask><g stroke-linecap="round"><g transform="translate(729.4359664160198 310.03891064026254) rotate(0 64.95888764378282 0.29476826517280585)"><path d="M0.95 -2.43 C21.55 -2.3, 104.75 -0.19, 126.26 0.9 M-1.98 2.43 C19.32 2.76, 109.99 2.16, 131.9 3.01" stroke="#000000" stroke-width="4" fill="none"></path></g></g><mask></mask><g stroke-linecap="round" transform="translate(895.6581512245099 773.8199344573662) rotate(359.8657848032177 66.49215750594419 64.23818606506478)"><path d="M116.22 20.12 C123.66 26.52, 129.85 39.42, 132.06 48.93 C134.28 58.45, 131.76 67.38, 129.51 77.21 C127.26 87.04, 124.75 100.29, 118.54 107.89 C112.34 115.49, 102.11 119.34, 92.27 122.81 C82.43 126.28, 70.08 129.37, 59.51 128.71 C48.93 128.05, 37.36 124.66, 28.81 118.85 C20.25 113.03, 12.83 102.68, 8.18 93.8 C3.52 84.92, 1.29 75.04, 0.88 65.56 C0.46 56.08, 0.85 45.75, 5.68 36.93 C10.5 28.11, 20.97 18.4, 29.82 12.63 C38.67 6.86, 48.63 3.76, 58.78 2.32 C68.93 0.88, 80.92 0.65, 90.7 4 C100.48 7.36, 113.07 19, 117.48 22.45 C121.88 25.9, 118.11 23.57, 117.12 24.69 M26.67 13.59 C33.91 6.93, 44.79 4.21, 54.94 2.74 C65.1 1.26, 77.51 2.18, 87.62 4.74 C97.73 7.29, 108.22 11.41, 115.59 18.05 C122.95 24.7, 128.79 35.18, 131.81 44.61 C134.83 54.04, 135.85 65.05, 133.71 74.64 C131.57 84.23, 125.83 94.17, 118.99 102.15 C112.16 110.13, 102.29 117.87, 92.72 122.55 C83.15 127.22, 71.44 130.38, 61.57 130.22 C51.7 130.06, 41.92 127.04, 33.5 121.59 C25.08 116.15, 16.19 105.98, 11.05 97.53 C5.9 89.09, 3.75 80.92, 2.63 70.94 C1.52 60.97, 0.73 47.32, 4.34 37.7 C7.95 28.07, 20.69 16.66, 24.29 13.19 C27.89 9.72, 24.76 15.85, 25.93 16.88" stroke="#000000" stroke-width="4" fill="none"></path></g><g stroke-linecap="round"><g transform="translate(705.1867965290686 870.772622224938) rotate(0 95.17582686415341 -5.009680537661893)"><path d="M2.34 0.47 C34.27 -0.04, 159.24 -4.95, 190.19 -5.83 M0.16 -1.75 C31.92 -2.9, 157.47 -9.21, 188.37 -10.49" stroke="#000000" stroke-width="4" fill="none"></path></g></g><mask></mask><g stroke-linecap="round"><g transform="translate(1031.5925562420944 823.2773930752784) rotate(0 62.55519062846861 -32.46233069087498)"><path d="M0.76 0.66 C20.66 -9.67, 101.15 -50.45, 121.72 -61.48 M-2.27 -1.45 C18.36 -12.63, 106.51 -55.19, 127.38 -65.58" stroke="#000000" stroke-width="4" fill="none"></path></g></g><mask></mask><g transform="translate(137.29892490079715 531.395776398682) rotate(0 19.501678466796875 34.99801095147173)"><text x="0" y="0" font-family="Virgil, Segoe UI Emoji" font-size="54.78563361339878px" fill="#000000" text-anchor="start" style="white-space: pre;" direction="ltr" dominant-baseline="text-before-edge">2</text></g><g transform="translate(443.5334748707277 529.8084909949374) rotate(0 16.680503845214844 34.99801095147173)"><text x="0" y="0" font-family="Virgil, Segoe UI Emoji" font-size="54.78563361339878px" fill="#000000" text-anchor="start" style="white-space: pre;" direction="ltr" dominant-baseline="text-before-edge">9</text></g><g transform="translate(643.2133666922379 269.8964550461849) rotate(0 7.4226837158203125 34.998010951471734)"><text x="0" y="0" font-family="Virgil, Segoe UI Emoji" font-size="54.78563361339874px" fill="#000000" text-anchor="start" style="white-space: pre;" direction="ltr" dominant-baseline="text-before-edge">1</text></g><g transform="translate(916.7134202937069 278.2295369067888) rotate(0 16.927017211914062 34.998010951471734)"><text x="0" y="0" font-family="Virgil, Segoe UI Emoji" font-size="54.785633613398744px" fill="#000000" text-anchor="start" style="white-space: pre;" direction="ltr" dominant-baseline="text-before-edge">5</text></g><g transform="translate(1182.5397860594444 394.4954831746377) rotate(0 18.652587890625 34.998010951471734)"><text x="0" y="0" font-family="Virgil, Segoe UI Emoji" font-size="54.78563361339876px" fill="#000000" text-anchor="start" style="white-space: pre;" direction="ltr" dominant-baseline="text-before-edge">3</text></g><g transform="translate(1174.4241100978375 671.0736222958509) rotate(0 17.52959442138672 34.99801095147174)"><text x="0" y="0" font-family="Virgil, Segoe UI Emoji" font-size="54.78563361339878px" fill="#000000" text-anchor="start" style="white-space: pre;" direction="ltr" dominant-baseline="text-before-edge">6</text></g><g transform="translate(940.8062779446042 796.8630993399254) rotate(0 20.953346252441406 34.99801095147174)"><text x="0" y="0" font-family="Virgil, Segoe UI Emoji" font-size="54.78563361339868px" fill="#000000" text-anchor="start" style="white-space: pre;" direction="ltr" dominant-baseline="text-before-edge">8</text></g><g transform="translate(637.035752753539 799.640833659291) rotate(0 14.735816955566406 34.99801095147174)"><text x="0" y="0" font-family="Virgil, Segoe UI Emoji" font-size="54.78563361339879px" fill="#000000" text-anchor="start" style="white-space: pre;" direction="ltr" dominant-baseline="text-before-edge">7</text></g></svg>