<svg version="1.1" xmlns="http://www.w3.org/2000/svg" viewBox="0 0 1168.6280463814755 734.11884276918" width="1168.6280463814755" height="734.11884276918">
  <!-- svg-source:excalidraw -->
  
  <defs>
    <style class="style-fonts">
      @font-face {
        font-family: "Virgil";
        src: url("https://excalidraw.com/Virgil.woff2");
      }
      @font-face {
        font-family: "Cascadia";
        src: url("https://excalidraw.com/Cascadia.woff2");
      }
    </style>
  </defs>
  <rect x="0" y="0" width="1168.6280463814755" height="734.11884276918" fill="#ffffff"></rect><g stroke-linecap="round" transform="translate(310.254761195427 271.60169554948277) rotate(359.8657848032177 66.49215750594419 64.23818606506477)"><path d="M13.35 24.86 C13.35 24.86, 13.35 24.86, 13.35 24.86 M13.35 24.86 C13.35 24.86, 13.35 24.86, 13.35 24.86 M8.22 56.15 C25.3 42.15, 39.77 21.64, 44.46 10.11 M6.12 57.48 C18.98 41.44, 32.99 25.53, 48.1 11.78 M5.39 80.32 C25.49 58.65, 51.68 25.71, 78.39 -1.4 M5.87 84.2 C26.34 60.17, 48.7 34.71, 74.43 2.82 M10.82 96.83 C34.09 73.6, 57.51 55.38, 89.48 10.2 M11.55 99.09 C37.27 71.9, 59.78 45.46, 92.9 7.07 M21.06 115.57 C41.89 94.5, 57.76 66.75, 108.37 11.65 M19.59 114.72 C49.93 81.93, 80.25 45.95, 106.7 16.35 M35.49 118.63 C55.74 91.52, 84.21 65.71, 122.71 28.89 M36.51 121.19 C53.2 99.01, 70.74 79.07, 118.92 25.37 M51.09 130.3 C73.63 105.35, 95.93 78.69, 135 33.66 M48.33 131.44 C69.45 103.53, 90.96 79.53, 132.99 37.7 M71.55 127.35 C94.52 100.18, 117.9 70.76, 139.13 53.61 M68.26 130.99 C83.86 111.84, 98.87 92.9, 135.86 55.24 M90.72 136.75 C106.23 115.23, 126.06 96.25, 144.12 68.08 M86.81 134.97 C97.59 118.13, 111.92 104.08, 140.36 73.42" stroke="#b2f2bb" stroke-width="2" fill="none"></path><path d="M102.34 10.87 C111.69 15.14, 121.28 22.73, 126.43 31.62 C131.58 40.51, 133.38 54.26, 133.27 64.21 C133.16 74.15, 130.39 82.99, 125.76 91.31 C121.14 99.63, 113.5 108.25, 105.51 114.13 C97.52 120, 88.08 124.73, 77.83 126.56 C67.59 128.39, 54.14 127.86, 44.06 125.11 C33.99 122.36, 24.3 117.24, 17.38 110.06 C10.46 102.88, 5.46 92.09, 2.53 82.01 C-0.41 71.93, -2.05 59.14, -0.22 49.59 C1.62 40.03, 6.56 32.03, 13.52 24.66 C20.48 17.29, 31.6 9.6, 41.53 5.37 C51.47 1.15, 60.2 -3.87, 73.14 -0.69 C86.09 2.49, 110.51 17.72, 119.22 24.43 C127.94 31.13, 126.19 38.75, 125.43 39.56 M112.25 15.98 C120.78 21.64, 127.88 32.95, 130.99 42.66 C134.11 52.38, 132.53 64.83, 130.95 74.25 C129.37 83.66, 126.77 90.83, 121.5 99.15 C116.23 107.46, 108.45 119.01, 99.33 124.16 C90.2 129.32, 77.07 130.32, 66.74 130.07 C56.41 129.82, 46.58 127.81, 37.34 122.69 C28.11 117.57, 17.75 108.38, 11.34 99.35 C4.93 90.33, 0.48 78.62, -1.12 68.53 C-2.73 58.44, -2.74 47.99, 1.71 38.82 C6.17 29.64, 17.32 19.46, 25.62 13.47 C33.93 7.48, 41.57 4.91, 51.54 2.89 C61.51 0.86, 75.24 -1.24, 85.46 1.33 C95.69 3.89, 108.33 15.18, 112.9 18.28 C117.47 21.37, 113.41 19.35, 112.89 19.9" stroke="#000000" stroke-width="4" fill="none"></path></g><g stroke-linecap="round" transform="translate(9.999987841450832 264.9517200206589) rotate(359.8657848032177 66.49215750594416 64.23818606506475)"><path d="M18.73 21.58 C18.73 21.58, 18.73 21.58, 18.73 21.58 M18.73 21.58 C18.73 21.58, 18.73 21.58, 18.73 21.58 M14.64 57.69 C27.25 39.09, 36.49 21.95, 52.89 6.96 M10.38 54.11 C24.37 38.33, 38.52 25.82, 52.64 7.73 M3.62 86.38 C25.15 59.61, 49.51 35.55, 77.47 6.93 M8.26 84.92 C25.02 64.39, 40.03 43.8, 76.13 2.13 M14.22 97.98 C41.44 77.15, 59.34 49.54, 93.71 10.64 M15.95 99.41 C34.69 78.29, 54.29 55.36, 92.27 9.01 M24 118.15 C44.33 84.38, 72.44 55, 111.46 15.36 M22.17 116.35 C45.86 88.66, 66.78 65.83, 109.61 16.29 M33.49 121.02 C57.63 101.33, 80.9 81.05, 116.94 29.58 M37.73 122.4 C67.01 87.96, 96.11 53.53, 119.8 24.88 M50.87 132.35 C73.05 104.66, 98.48 77.41, 129.23 41 M50.84 130.7 C84.4 92.54, 116.29 59.51, 132.74 40.14 M75.06 126.17 C88.52 108.47, 107.91 92.73, 134.19 57.78 M72.84 128.77 C96.12 101.36, 120.91 76.38, 137.13 56.38 M103.87 121.66 C121.45 103.94, 136.07 78.95, 141.71 75.79 M100.94 118.91 C116.96 103.18, 130.02 88.5, 144.29 71.61" stroke="#a5d8ff" stroke-width="2" fill="none"></path><path d="M46.16 2.51 C55.17 -1.34, 66.4 0.99, 76.2 2.39 C86 3.8, 96.7 5.75, 104.96 10.95 C113.22 16.16, 120.83 24.73, 125.75 33.64 C130.67 42.54, 134.74 54.07, 134.47 64.38 C134.2 74.69, 129.45 86.24, 124.12 95.48 C118.8 104.71, 111 114.21, 102.52 119.77 C94.05 125.33, 83.69 128.33, 73.25 128.83 C62.81 129.34, 49.79 126.36, 39.88 122.8 C29.98 119.24, 20.13 114.81, 13.81 107.49 C7.49 100.16, 3.79 88.99, 1.95 78.84 C0.1 68.69, -0.07 56.16, 2.75 46.59 C5.57 37.02, 11.08 29.19, 18.86 21.43 C26.64 13.67, 42.55 3.06, 49.44 0.05 C56.34 -2.96, 59.44 2.27, 60.23 3.38 M77.22 0.86 C86.66 1.51, 95.22 7.79, 103.45 13.09 C111.67 18.38, 121.17 23.56, 126.57 32.64 C131.96 41.72, 135.85 56.94, 135.81 67.55 C135.76 78.17, 131.19 87.66, 126.27 96.32 C121.35 104.98, 115.02 114.34, 106.29 119.54 C97.56 124.73, 84.84 127.18, 73.91 127.52 C62.98 127.85, 50.84 125.38, 40.73 121.56 C30.62 117.73, 19.35 112.01, 13.27 104.56 C7.18 97.11, 6.09 86.06, 4.23 76.87 C2.37 67.68, -0.42 58.84, 2.1 49.42 C4.61 39.99, 12.12 27.67, 19.3 20.33 C26.48 12.99, 35.44 8.34, 45.18 5.4 C54.91 2.46, 72.23 3.3, 77.69 2.71 C83.16 2.12, 78.16 1.06, 77.97 1.85" stroke="#000000" stroke-width="4" fill="none"></path></g><g stroke-linecap="round" transform="translate(577.6894321582542 600.0835526400015) rotate(359.8657848032177 3.650972189736194 2.4825139380563144)"><path d="M4.84 1.82 C5.18 1.91, 5.8 0.01, 6.16 -0.17 C6.53 -0.36, 6.77 0.18, 7.04 0.7 C7.31 1.23, 8.38 2.26, 7.78 3 C7.18 3.74, 4.58 4.57, 3.45 5.15 C2.33 5.73, 1.56 6.67, 1.03 6.45 C0.5 6.23, 0.68 4.85, 0.27 3.85 C-0.14 2.85, -1.38 0.78, -1.42 0.46 C-1.46 0.14, -1.21 1.83, 0.05 1.92 C1.3 2.01, 4.93 1.29, 6.11 1.01 C7.29 0.72, 7.02 0.12, 7.13 0.2 M3.31 3.09 C3.87 2.3, 0.7 1.02, 1.22 0.43 C1.74 -0.17, 5.13 -0.73, 6.44 -0.48 C7.75 -0.22, 9.21 1.1, 9.08 1.96 C8.95 2.81, 6.11 4.61, 5.65 4.66 C5.18 4.72, 6.28 1.79, 6.3 2.27 C6.33 2.75, 6.51 6.96, 5.8 7.53 C5.1 8.09, 2.61 6.16, 2.08 5.66 C1.55 5.15, 2.81 5.38, 2.63 4.48 C2.46 3.59, 1.55 1.3, 1.02 0.29 C0.48 -0.72, -0.09 -1.42, -0.56 -1.59" stroke="#000000" stroke-width="4" fill="none"></path></g><g stroke-linecap="round"><g transform="translate(306.2342483074699 329.14347871282473) rotate(0 -79.83557250257604 0.15963395475392872)"><path d="M0.68 2.72 C-25.88 2.41, -134.2 -1.37, -160.35 -2.4 M-2.39 1.72 C-27.96 1.99, -129.14 1.87, -154.86 1.47" stroke="#000000" stroke-width="4" fill="none"></path></g></g><mask></mask><g stroke-linecap="round"><g transform="translate(421.9041718742375 384.9474698766585) rotate(0 79.84898940117529 108.1025928758156)"><path d="M-1.68 0.43 C25.1 35.76, 134.89 178.96, 161.38 214.71 M2.6 -1.8 C29.17 35.15, 133.71 181.39, 160.47 218.01" stroke="#000000" stroke-width="4" fill="none"></path></g></g><mask></mask><g stroke-linecap="round" transform="translate(779.1243047236136 18.62851652611161) rotate(359.8657848032177 66.49215750594419 64.23818606506477)"><path d="M7.97 34.75 C7.97 34.75, 7.97 34.75, 7.97 34.75 M7.97 34.75 C7.97 34.75, 7.97 34.75, 7.97 34.75 M4.28 62.24 C21.35 43.11, 35.72 26.46, 57.37 2.77 M3.42 64.46 C21.69 39.05, 45.06 16.66, 57.87 1.81 M5.99 86.02 C24.87 65.66, 42.79 47.39, 80.32 0.88 M7.67 82.66 C33.47 54.75, 59.25 26.64, 78.31 3.38 M12.12 97.63 C43.48 70.67, 69.48 36.25, 94.16 12.3 M14.24 100.25 C36.67 77.88, 57.11 53.17, 92.55 10.36 M23.33 109.44 C44.99 90.42, 63.95 70.85, 106.57 17.43 M24.27 112.12 C55.32 73.52, 86.58 39.65, 107.71 19.73 M39.27 125.14 C71.5 86.98, 102.73 48.88, 120.26 26.72 M36.47 124.47 C63.19 95.87, 88.84 66.54, 120.28 28.83 M55.9 128.73 C74.77 109.37, 88.25 89.43, 125.46 45.73 M51.13 131.13 C79.58 94.58, 110.32 58.87, 127.07 43.81 M70.7 133.35 C87.53 113.36, 104.51 91.73, 135.14 57.32 M69.94 137.69 C89.62 113.1, 109.96 90.59, 139.2 57.17 M97.83 126.86 C105.22 115.19, 110 109.09, 133.17 82.05 M97.79 126.58 C110.04 110.86, 123.98 97.5, 132.77 83.53" stroke="#ffec99" stroke-width="2" fill="none"></path><path d="M30.61 9.91 C38.1 4.17, 48.48 1.22, 58.37 0.61 C68.25 0, 80.21 2.57, 89.93 6.25 C99.65 9.92, 110.12 15.66, 116.7 22.66 C123.29 29.67, 127.39 38.45, 129.43 48.3 C131.47 58.14, 131.13 71.82, 128.94 81.73 C126.75 91.63, 122.75 100.76, 116.28 107.72 C109.81 114.68, 99.61 119.99, 90.1 123.5 C80.58 127, 69.79 130.13, 59.21 128.74 C48.63 127.35, 34.95 120.74, 26.61 115.16 C18.27 109.59, 13.36 104.07, 9.17 95.3 C4.98 86.53, 1.66 72.67, 1.48 62.55 C1.3 52.44, -0.39 44.58, 8.1 34.6 C16.59 24.61, 40.63 8.19, 52.42 2.66 C64.21 -2.86, 78.37 0.52, 78.83 1.44 M20.4 20.73 C26.54 13.24, 39.28 8.46, 48.9 5.07 C58.53 1.68, 68.7 -0.57, 78.16 0.4 C87.61 1.37, 98 5.02, 105.64 10.91 C113.27 16.8, 119.01 26.61, 123.97 35.73 C128.92 44.85, 135.42 55.19, 135.36 65.62 C135.3 76.06, 128.95 89.57, 123.62 98.33 C118.29 107.09, 111.89 112.95, 103.37 118.2 C94.86 123.45, 82.76 128.65, 72.54 129.8 C62.33 130.96, 51.28 129.41, 42.08 125.15 C32.88 120.89, 23.79 112.29, 17.34 104.23 C10.89 96.17, 5.51 86.59, 3.36 76.8 C1.22 67.01, 1.95 55.23, 4.49 45.48 C7.03 35.73, 16.36 22.52, 18.6 18.31 C20.85 14.11, 17.45 19.04, 17.98 20.23" stroke="#000000" stroke-width="4" fill="none"></path></g><g stroke-linecap="round" transform="translate(1042.725329983773 410.5194282344456) rotate(359.8657848032177 7.119205436651896 0.608967668972042)"><path d="M0.65 0.47 C1.04 0.88, 3.01 1.89, 4.59 1.93 C6.18 1.98, 8.96 1.17, 10.16 0.73 C11.36 0.3, 11.49 -0.95, 11.8 -0.67 C12.11 -0.39, 12.05 2.04, 12.02 2.43 C11.99 2.81, 12.44 2.01, 11.62 1.65 C10.79 1.28, 8.45 0.22, 7.07 0.25 C5.69 0.28, 4.82 2.04, 3.36 1.83 C1.9 1.63, -1.92 -0.99, -1.69 -1.01 C-1.45 -1.03, 3.36 1.76, 4.77 1.73 C6.19 1.7, 6.98 -1.03, 6.8 -1.19 M3.77 1.33 C4.95 0.84, 8.81 -2.59, 10.91 -2.32 C13 -2.05, 15.63 2.17, 16.36 2.95 C17.08 3.73, 15.68 2.33, 15.27 2.36 C14.86 2.39, 15.34 3.42, 13.91 3.13 C12.49 2.85, 8.93 1.4, 6.73 0.64 C4.52 -0.12, 2.27 -1.16, 0.66 -1.44 C-0.95 -1.73, -3.44 -1.01, -2.93 -1.07 C-2.43 -1.12, 2.35 -2.17, 3.7 -1.78 C5.06 -1.39, 4.57 1.09, 5.17 1.27 C5.77 1.44, 7.02 -0.79, 7.31 -0.74" stroke="#000000" stroke-width="4" fill="none"></path></g><g stroke-linecap="round" transform="translate(1046.613371985709 136.37144709911945) rotate(359.8657848032177 0.03636080736578151 6.1475988028465345)"><path d="M-0.57 2.99 C-0.44 2.3, 0.35 1.07, 0.17 0.71 C-0.02 0.34, -1.32 -0.28, -1.67 0.82 C-2.02 1.93, -2.27 5.76, -1.93 7.33 C-1.58 8.9, -0.01 9.62, 0.4 10.26 C0.81 10.89, 0.38 10.76, 0.52 11.13 C0.65 11.5, 1.59 13.17, 1.22 12.49 C0.85 11.8, -1.81 8.08, -1.72 7.02 C-1.63 5.96, 1.24 7.5, 1.78 6.13 C2.31 4.76, 1.76 -0.38, 1.51 -1.2 C1.27 -2.01, 0.65 0.72, 0.31 1.24 M0.9 -2.35 C1.62 -2.09, 2.82 2.85, 2.89 4.46 C2.96 6.06, 1.35 6.07, 1.32 7.28 C1.29 8.5, 2.89 11.05, 2.7 11.76 C2.51 12.47, 0.88 11.96, 0.18 11.53 C-0.51 11.1, -0.95 9.97, -1.47 9.2 C-2 8.44, -3.62 8.07, -2.97 6.94 C-2.31 5.82, 1.98 3.21, 2.47 2.44 C2.96 1.67, 0.06 2.85, 0 2.31 C-0.06 1.78, 1.86 -0.63, 2.13 -0.75 C2.4 -0.86, 1.55 1.04, 1.61 1.63" stroke="#000000" stroke-width="4" fill="none"></path></g><g stroke-linecap="round"><g transform="translate(1046.7855369056197 151.95786513068123) rotate(0 1.056770429136236 126.76812450233635)"><path d="M-1.69 -0.82 C-0.6 41.18, 2.49 211.43, 3.8 254.08 M2.59 -3.73 C3.58 38.49, 1.17 213.6, 1.71 257.26" stroke="#000000" stroke-width="4" fill="none"></path></g></g><mask></mask><g stroke-linecap="round"><g transform="translate(911.0740783147693 98.7539725103145) rotate(0 67.164287013577 21.332387746658206)"><path d="M0.28 -0.82 C23.45 6.43, 114.79 35.85, 137.34 42.67 M-3.02 -3.73 C20.18 4.09, 113.67 38.8, 136.56 46.4" stroke="#000000" stroke-width="4" fill="none"></path></g></g><mask></mask><g stroke-linecap="round"><g transform="translate(577.3909221612479 123.0324577286828) rotate(0 -80.8200639730274 75.14858229062244)"><path d="M2.67 0.18 C-24.47 25.35, -134.65 125.24, -162.59 150.17 M0.68 -2.19 C-26.78 23.31, -136.28 126.89, -164.31 152.49" stroke="#000000" stroke-width="4" fill="none"></path></g></g><mask></mask><g stroke-linecap="round"><g transform="translate(582.2671222348621 122.63013247787714) rotate(0 97.28545094461555 -21.55180945846985)"><path d="M0.95 -2.43 C32.32 -10.04, 158.63 -38.89, 190.92 -45.53 M-1.98 2.43 C30.09 -4.98, 163.86 -36.53, 196.55 -43.42" stroke="#000000" stroke-width="4" fill="none"></path></g></g><mask></mask><g stroke-linecap="round" transform="translate(941.4891677804738 633.620016475765) rotate(359.8657848032177 0.6921216718319556 3.7611605370917687)"><path d="M1.67 0.27 C1.92 0.84, 2.95 3.72, 2.59 4.41 C2.23 5.09, -0.49 3.61, -0.48 4.39 C-0.48 5.16, 2.22 8.81, 2.61 9.06 C3 9.3, 2.23 6.41, 1.85 5.86 C1.47 5.32, 0.71 6.12, 0.32 5.8 C-0.08 5.48, -0.55 4.96, -0.52 3.93 C-0.48 2.91, 0.16 0.18, 0.52 -0.37 C0.88 -0.92, 1.8 -0.01, 1.66 0.61 C1.51 1.22, -0.57 3, -0.35 3.32 C-0.13 3.64, 2.56 2.51, 2.99 2.53 M-0.37 -1.66 C-0.77 -1.41, -2.29 0.42, -1.6 1.29 C-0.91 2.15, 3.35 2.32, 3.77 3.52 C4.19 4.73, 1.13 8.01, 0.93 8.51 C0.73 9.01, 2.43 6.76, 2.56 6.54 C2.68 6.32, 1.69 7.39, 1.67 7.19 C1.66 6.99, 2.22 6.38, 2.46 5.34 C2.7 4.3, 3.07 1.75, 3.14 0.95 C3.21 0.16, 2.93 0.58, 2.87 0.55 C2.8 0.51, 3.12 0.83, 2.74 0.75 C2.36 0.67, 1.2 -0.03, 0.57 0.07" stroke="#000000" stroke-width="4" fill="none"></path></g><g stroke-linecap="round"><g transform="translate(587.3945887337378 604.801013371479) rotate(0 176.7986420430779 16.34332280180584)"><path d="M2.34 0.47 C61.48 6.67, 295.27 28.6, 353.44 34.43 M0.16 -1.75 C59.13 3.81, 293.51 24.35, 351.61 29.78" stroke="#000000" stroke-width="4" fill="none"></path></g></g><mask></mask><g stroke-linecap="round"><g transform="translate(949.0074649758009 626.4945690911816) rotate(0 50.436874474890146 -103.06657560288183)"><path d="M0.76 0.66 C16.62 -33.2, 80.95 -168.12, 97.48 -202.69 M-2.27 -1.45 C14.32 -36.16, 86.31 -172.87, 103.15 -206.79" stroke="#000000" stroke-width="4" fill="none"></path></g></g><mask></mask><g transform="translate(204.4358763394381 221.01626291528538) rotate(0 24.70208740234375 53.79379908445642)"><text x="0" y="0" font-family="Virgil, Segoe UI Emoji" font-size="86.07007853513025px" fill="#000000" text-anchor="start" style="white-space: pre;" direction="ltr" dominant-baseline="text-before-edge">F</text></g><g transform="translate(523.4731582886631 10) rotate(0 22.824737548828125 42.7841016069053)"><text x="0" y="0" font-family="Virgil, Segoe UI Emoji" font-size="68.45456257104848px" fill="#000000" text-anchor="start" style="white-space: pre;" direction="ltr" dominant-baseline="text-before-edge">a</text></g><g transform="translate(982.1880439400694 643.0885953892913) rotate(0 88.22000122070312 40.515123689944346)"><text x="0" y="0" font-family="Virgil, Segoe UI Emoji" font-size="64.82419790391093px" fill="#000000" text-anchor="start" style="white-space: pre;" direction="ltr" dominant-baseline="text-before-edge">C - a</text></g></svg>