<svg version="1.1" xmlns="http://www.w3.org/2000/svg" viewBox="0 0 1250.6514349014697 756.3443890864623" width="2501.3028698029393" height="1512.6887781729247">
  <!-- svg-source:excalidraw -->
  
  <defs>
    <style class="style-fonts">
      @font-face {
        font-family: "Virgil";
        src: url("https://excalidraw.com/Virgil.woff2");
      }
      @font-face {
        font-family: "Cascadia";
        src: url("https://excalidraw.com/Cascadia.woff2");
      }
    </style>
  </defs>
  <rect x="0" y="0" width="1250.6514349014697" height="756.3443890864623" fill="#ffffff"></rect><g stroke-linecap="round"><g transform="translate(15.528542056850227 743.1167538876308) rotate(0 607.1802907845438 -2.2422302366585427)"><path d="M1.22 2.19 C203.87 0.65, 1013.93 -5.28, 1215.92 -6.67 M-1.56 0.9 C200.86 0.88, 1012.54 -3.29, 1214.59 -4.08" stroke="#000000" stroke-width="2" fill="none"></path></g><g transform="translate(15.528542056850227 743.1167538876308) rotate(0 607.1802907845438 -2.2422302366585427)"><path d="M1214.9 -2.54 L1202.26 0.57 L1197.06 -10.89 L1211.95 -4.3" stroke="none" stroke-width="0" fill="#000000" fill-rule="evenodd"></path><path d="M1216.93 -2.28 C1208.57 -3.21, 1205.02 0.17, 1198.91 0.57 M1214.75 -4.4 C1211.94 -1.87, 1207.84 -0.4, 1201.41 1.99 M1199.63 0.68 C1203.46 -0.1, 1198.89 -4.57, 1199.69 -11.74 M1199.97 1.66 C1202.3 -1.06, 1201.21 -4.57, 1200.52 -11.51 M1200.91 -11.76 C1208.86 -7.61, 1213.66 -4.57, 1212.53 -3.64 M1201.97 -10.92 C1202.85 -9.72, 1208.07 -8.23, 1216.08 -4.65 M1214.59 -4.08 C1214.59 -4.08, 1214.59 -4.08, 1214.59 -4.08 M1214.59 -4.08 C1214.59 -4.08, 1214.59 -4.08, 1214.59 -4.08" stroke="#000000" stroke-width="2" fill="none"></path></g></g><mask></mask><g stroke-linecap="round"><g transform="translate(18.70317341308609 743.1167538876308) rotate(0 -3.5147561890796624 -364.94455934439964)"><path d="M1.67 -1.91 C0.49 -124.46, -4.83 -611.15, -5.87 -733.12 M-0.86 3.23 C-2.63 -119.16, -7.82 -607.76, -8.7 -730.24" stroke="#000000" stroke-width="2" fill="none"></path></g><g transform="translate(18.70317341308609 743.1167538876308) rotate(0 -3.5147561890796624 -364.94455934439964)"><path d="M-7.47 -732 L-6.14 -717.25 L-17.56 -716.81 L-10.62 -730.97" stroke="none" stroke-width="0" fill="#000000" fill-rule="evenodd"></path><path d="M-10.75 -731.43 C-7.76 -725.41, -6.16 -722.78, -2.41 -716.96 M-7.35 -729.71 C-5.99 -727.08, -5.41 -724.52, -1.33 -716.37 M0.28 -714.57 C-8.8 -714.59, -12.57 -718.17, -15.69 -716.84 M-0.97 -716.68 C-6.14 -716.87, -10.87 -717.92, -13.7 -716.14 M-12.46 -716.54 C-11.66 -718.98, -14.19 -722.2, -10.84 -728.17 M-16.23 -717.21 C-12.03 -722.13, -9.04 -727.14, -9.41 -729.28 M-8.7 -730.24 C-8.7 -730.24, -8.7 -730.24, -8.7 -730.24 M-8.7 -730.24 C-8.7 -730.24, -8.7 -730.24, -8.7 -730.24" stroke="#000000" stroke-width="2" fill="none"></path></g></g><mask></mask><g stroke-linecap="round"><g transform="translate(621.8577611728944 739.942122531395) rotate(0 -6.778298593551142 -361.9875467407202)"><path d="M-1.1 -1.39 C-3.46 -121.51, -10.25 -602.68, -12.45 -722.58" stroke="#000000" stroke-width="2.5" fill="none" stroke-dasharray="8 10"></path></g></g><mask></mask><g stroke-linecap="round"><g transform="translate(18.70317341308609 417.7305725184161) rotate(0 294.04312626215915 -163.5888955521409)"><path d="M0.25 -1.97 C98.04 -56.79, 487.84 -275.25, 585.64 -330.31 M-3.07 3.13 C95.74 -51.09, 493.12 -271.19, 591.15 -326.77" stroke="#000000" stroke-width="2" fill="none"></path></g><g transform="translate(18.70317341308609 417.7305725184161) rotate(0 294.04312626215915 -163.5888955521409)"><path d="M588.51 -326.99 L580.46 -315.33 L576.98 -329.07 L593.51 -324.64" stroke="none" stroke-width="0" fill="#000000" fill-rule="evenodd"></path><path d="M589.04 -328.53 C588.57 -323.83, 584.15 -320.09, 581.74 -311.89 M591.53 -327.11 C589.32 -322.33, 586.33 -319.41, 581.41 -313.11 M581.11 -315.99 C579.4 -318.99, 578.38 -325.11, 574.87 -323.14 M581.94 -315.76 C581.69 -317.51, 577.64 -321.33, 575.6 -324.63 M574.13 -325.23 C578.56 -323.98, 587.22 -324.38, 590.02 -329.4 M577.69 -326.24 C579.35 -324.87, 584.25 -325.87, 590.27 -326.16 M591.15 -326.77 C591.15 -326.77, 591.15 -326.77, 591.15 -326.77 M591.15 -326.77 C591.15 -326.77, 591.15 -326.77, 591.15 -326.77" stroke="#000000" stroke-width="2" fill="none"></path></g></g><mask></mask><g stroke-linecap="round"><g transform="translate(20.290277170589405 414.55606225967426) rotate(0 609.3600265310644 -5.923069335921809)"><path d="M-1.64 -0.16 C201.71 -1.78, 1016.6 -10.02, 1220.36 -11.68" stroke="#000000" stroke-width="2.5" fill="none" stroke-dasharray="8 10"></path></g></g><mask></mask><g stroke-linecap="round"><g transform="translate(623.4449860278918 735.1805085151498) rotate(0 303.7956094656448 -161.57301320136312)"><path d="M-0.23 -2.16 C101.94 -56.46, 509.09 -272.28, 611.4 -325.99 M-3.8 2.84 C98.17 -51.02, 506.49 -267.31, 609.32 -322.68" stroke="#000000" stroke-width="2" fill="none"></path></g><g transform="translate(623.4449860278918 735.1805085151498) rotate(0 303.7956094656448 -161.57301320136312)"><path d="M610.11 -326.08 L602.67 -308.57 L593.23 -322.81 L611.89 -326.08" stroke="none" stroke-width="0" fill="#000000" fill-rule="evenodd"></path><path d="M607.01 -322.36 C606.49 -317.09, 606.03 -314.42, 600.55 -309.93 M610.18 -323.51 C605.99 -317.83, 605.73 -317.19, 601.64 -311.44 M600.89 -312.8 C597.59 -310.92, 597.52 -315.8, 594.21 -322.76 M599.34 -310.72 C598.26 -311.95, 597.63 -314.54, 594.6 -322.75 M596.36 -319.87 C597.94 -324.97, 602.56 -321.02, 608.19 -319.69 M594.66 -321.62 C597.39 -321.67, 602.27 -323.21, 610.48 -322.71 M609.32 -322.68 C609.32 -322.68, 609.32 -322.68, 609.32 -322.68 M609.32 -322.68 C609.32 -322.68, 609.32 -322.68, 609.32 -322.68" stroke="#000000" stroke-width="2" fill="none"></path></g></g><mask></mask></svg>